:SAMPLES-PER-SECOND 30
:FULLY-SPECIFIED
:DEGREES
334
root  34.78583989 36.55235411 -14.36764725 8.608566284 -4.725291729 2.912143707
lowerback  -8.426160812 -0.3515950739 -0.3401528597
upperback  -3.727989912 0.006594909821 -3.309679985
thorax  0.8664109707 0.1523260027 -3.225840092
lowerneck  -8.00041008 -13.03989983 -9.829319954
upperneck  12.0802002 -17.70390129 10.29580021
head  6.79726696 -8.253390312 3.1354599
lclavicle  0 -4.497500157e-015 -2.743230041e-014
lhumerus  -46.54100037 30.11580086 64.61840057
lradius  -0.009674543515 -6.507048965e-006 30.23696899
lwrist  3.192251654e-007 -3.790274832e-007 -27.51300049
lhand  -4.405151386e-031 -36.71780014 -10.72480011
lfingers  90 7.125020027 -90
lthumb  94.74111642 -25.56621247 100.8786579
rclavicle  0 -4.497500157e-015 -2.743230041e-014
rhumerus  -58.41220093 -48.74750137 -40.02870178
rradius  -5.16745672e-007 2.214343908e-008 33.86349869
rwrist  0.0003490542294 -0.002273720223 -139.8580017
rhand  -1.775042532e-031 5.924220085 -7.610159874
rfingers  -90 -7.125020027 -90
rthumb  -84.75395879 -8.568310363 -58.35563334
rfemur  -10.25967884 16.03915024 13.35742569
rtibia  0.01894476451 -0.6275549531 18.10880852
rfoot  1.496775985 -21.34235573 -35.60666275
rtoes  4.045141677 19.60307522 -101.9028109
lfemur  -4.881822109 -15.59792423 -20.9827652
ltibia  4.570819855 -0.164619714 10.78111744
lfoot  0.2486958802 -23.14560699 36.12688446
ltoes  -8.50423118 -18.16926565 -115.6186548
335
root  34.7851971 36.5516152 -14.36805725 8.59059906 -4.68893528 2.907185316
lowerback  -8.435389519 -0.3702619374 -0.3342569768
upperback  -3.741660118 -0.0177974999 -3.301039934
thorax  0.8560349941 0.1405120045 -3.222450018
lowerneck  -8.013150215 -13.03289986 -9.839489937
upperneck  12.11009979 -17.6923027 10.28129959
head  6.797523975 -8.24671936 3.13984561
lclavicle  0 -4.497500157e-015 -2.743230041e-014
lhumerus  -46.62879944 30.13809967 64.57189941
lradius  -0.009674543515 -6.507048965e-006 30.23688126
lwrist  3.192251654e-007 -3.790274832e-007 -27.59530067
lhand  -4.406941955e-031 -36.74900055 -10.71310043
lfingers  90 7.125020027 -90
lthumb  94.75329061 -25.55360982 100.9109449
rclavicle  0 -4.497500157e-015 -2.743230041e-014
rhumerus  -58.54770279 -48.66590118 -40.17459488
rradius  -5.16745672e-007 2.214343908e-008 33.9715004
rwrist  0.0003490542294 -0.002273720223 -140.1009979
rhand  -3.550262549e-031 5.951759815 -7.67261982
rfingers  -90 -7.125020027 -90
rthumb  -84.78048671 -8.517052038 -58.33367559
rfemur  -10.21669865 16.01510048 13.36733437
rtibia  0.02982979268 -0.628611505 18.07295609
rfoot  1.509964228 -21.34019279 -35.61949539
rtoes  4.064074663 19.59930653 -101.9592479
lfemur  -4.833166122 -15.60038376 -20.99284363
ltibia  4.59565115 -0.1609682292 10.74249744
lfoot  0.249699831 -23.14192009 36.11616516
ltoes  -8.513935239 -18.16484124 -115.6497786
336
root  34.79413611 36.55447171 -14.37287218 8.657294273 -4.672921658 2.898179054
lowerback  -8.399410248 -0.3515889943 -0.3179652989
upperback  -3.731920004 0.006468260195 -3.342010021
thorax  0.8474410176 0.1524319947 -3.271950006
lowerneck  -7.960309982 -13.05449963 -9.827500343
upperneck  12.10039997 -17.73059845 10.32059956
head  6.798606396 -8.263459206 3.144840002
lclavicle  0 -4.497500157e-015 -2.743230041e-014
lhumerus  -46.65610123 29.93350029 64.60310364
lradius  -0.009674543515 -6.507048965e-006 30.25092506
lwrist  3.192251654e-007 -3.790274832e-007 -27.49959946
lhand  -4.405300586e-031 -36.72040176 -10.72439957
lfingers  90 7.125020027 -90
lthumb  94.74225044 -25.56571091 100.8814038
rclavicle  0 -4.497500157e-015 -2.743230041e-014
rhumerus  -58.54999924 -48.54109955 -40.50519943
rradius  -5.16745672e-007 2.214343908e-008 34.14400101
rwrist  0.0003490542294 -0.002273720223 -139.3450012
rhand  -1.775242907e-031 5.986219883 -7.881830215
rfingers  -90 -7.125020027 -90
rthumb  -84.88329923 -8.341505645 -58.31643225
rfemur  -10.33343506 16.07904053 13.34217548
rtibia  0.01517473347 -0.6172062755 18.11486816
rfoot  1.471838117 -21.29707146 -35.71747971
rtoes  4.099939364 19.59211694 -102.066185
lfemur  -5.034858227 -15.51620102 -20.90030479
ltibia  4.485767365 -0.09332504869 10.91661072
lfoot  0.2728045881 -23.35219193 36.08497238
ltoes  -8.506763157 -18.16811184 -115.6267749
337
root  34.79621467 36.55473604 -14.37490568 8.664917946 -4.654425621 2.890960932
lowerback  -8.394929886 -0.357080996 -0.3163300455
upperback  -3.738610029 -0.0007488519768 -3.340120077
thorax  0.8376460075 0.1489499956 -3.271529913
lowerneck  -7.934790134 -13.05529976 -9.84844017
upperneck  12.10849953 -17.73180008 10.32530022
head  6.800309181 -8.265680313 3.146547318
lclavicle  0 -4.497500157e-015 -2.743230041e-014
lhumerus  -46.72579956 29.86090088 64.62010193
lradius  -0.009674543515 -6.507048965e-006 30.25329971
lwrist  3.192251654e-007 -3.790274832e-007 -27.46139908
lhand  -0 -36.70690155 -10.69579983
lfingers  90 7.125020027 -90
lthumb  94.72995123 -25.5381089 100.8644099
rclavicle  0 -4.497500157e-015 -2.743230041e-014
rhumerus  -58.42290115 -48.3783989 -40.81370163
rradius  -5.16745672e-007 2.214343908e-008 34.21390152
rwrist  0.0003490542294 -0.002273720223 -139.0149994
rhand  -1.77507445e-031 5.934140205 -8.077659607
rfingers  -90 -7.125020027 -90
rthumb  -84.9993782 -8.171031112 -58.38199673
rfemur  -10.36166286 16.13853836 13.35153389
rtibia  0.004892115481 -0.5800577402 18.14406967
rfoot  1.455678105 -21.22679901 -35.77227402
rtoes  4.090602035 19.59399512 -102.0383405
lfemur  -5.050319195 -15.51802254 -20.88263893
ltibia  4.470842838 -0.07494574785 10.91987705
lfoot  0.2641017437 -23.38792038 36.07936478
ltoes  -8.514940954 -18.16438234 -115.6530047
